.
..............................Site Info...........................

 -   http://www.scenetime.com  *_*   

SceneTime is going to Close sign up on march/1, hurry up! get in before the doors are closed.

     We care to share . Join us on  http://www.scenetime.com 

    Be the first to get new release at  http://www.scenetime.com

        Seed back for speed


...................................NFO:.................................................[IMG]http://img521.imageshack.us/img521/6636/chroniclep.jpg[/IMG]

Complete name                    : Chronicle 2012 TS READNFO x264 AC3 - DTRG.mkv
Format                           : Matroska
Format version                   : Version 2
File size                        : 698 MiB
Duration                         : 1h 15mn
Overall bit rate                 : 1 295 Kbps
Encoded date                     : UTC 2012-02-05 23:18:46
Writing application              : mkvmerge v5.2.1 ('A Far Off Place') built on Jan  2 2012 23:21:10
Writing library                  : libebml v1.2.3 + libmatroska v1.3.0

Video
ID                               : 1
Format                           : AVC
Format/Info                      : Advanced Video Codec
Format profile                   : High@L4.1
Format settings, CABAC           : Yes
Format settings, ReFrames        : 4 frames
Muxing mode                      : Header stripping
Codec ID                         : V_MPEG4/ISO/AVC
Duration                         : 1h 15mn
Bit rate                         : 1 166 Kbps
Width                            : 720 pixels
Height                           : 304 pixels
Display aspect ratio             : 2.35:1
Frame rate                       : 25.000 fps
Color space                      : YUV
Chroma subsampling               : 4:2:0
Bit depth                        : 8 bits
Scan type                        : Progressive
Bits/(Pixel*Frame)               : 0.213
Stream size                      : 615 MiB (88%)
Writing library                  : x264 core 116 r2074 2641b9e
Language                         : English
Default                          : Yes
Forced                           : No
Source                           : Russians/Lum1x, cheers...

Audio
ID                               : 2
Format                           : AC-3
Format/Info                      : Audio Coding 3
Mode extension                   : CM (complete main)
Muxing mode                      : Header stripping
Codec ID                         : A_AC3
Duration                         : 1h 15mn
Bit rate mode                    : Constant
Bit rate                         : 128 Kbps
Channel(s)                       : 2 channels
Channel positions                : Front: L R
Sampling rate                    : 44.1 KHz
Bit depth                        : 16 bits
Compression mode                 : Lossy
Stream size                      : 69.0 MiB (10%)
Default                          : Yes
Forced                           : No
Source                           : INSPiRAL CLEANED AUDiO/MiSTERE, cheers...

iMDB: http://www.imdb.com/title/tt1706593/

Encoder: Kareemzos..

DTRG bringing the p2p world yet another release, Chronicle 2012 Telesync.....

readnfo is because theres a camera movement, nothing i can do about that..
video isnt the best but its not the worse either..
was gonna do 1.37gb but didn't see any point so went with 700MB..
audio was cleaned by INSPiRAL and they did an awesome job so thanks...
if you cant wait for this flick then this is the one to grab, but like me 
you might want to wait but your choice at the end of the day...
check the sample before downloading because the screens cant tell you the real Q of
the release, enjoy folks.....

[b][i][size=4]SCREENSHOTS:[/b][/i][/size]

[IMG]http://img163.imageshack.us/img163/2221/32312109.png[/IMG]
[IMG]http://img205.imageshack.us/img205/9267/72793775.png[/IMG]
[IMG]http://img51.imageshack.us/img51/3613/54707699.png[/IMG]
[IMG]http://img851.imageshack.us/img851/255/24878318.png[/IMG]
[IMG]http://img32.imageshack.us/img32/7952/27593908.png[/IMG]
[IMG]http://img854.imageshack.us/img854/8757/76887856.png[/IMG]

Greetz to EMBER, ETRG, BHRG, FYA, 26k, CreWSaDe, RemixHD, LEGiTiMATE.......and maybe many more...........